<?xml version="1.0"?><svg width="74.9" height="74.9" xmlns="http://www.w3.org/2000/svg">
 <title>Letter S in a cercle blue</title>

 <g>
  <title>Layer 1</title>
  <g externalResourcesRequired="false" id="Layer_1">
   <rect fill="none" id="rect4515" y="0" x="0" height="74.900002" width="74.900002"/>
   <circle fill="#2f2fbf" id="circle4517" r="28.563" cy="37.450001" cx="36.972"/>
   <g id="g4519">
    <path fill="white" id="path4521" d="m30.860001,42.372002c0.039999,1.599998 0.84,4.639999 6.079998,4.639999c2.84,0 6,-0.68 6,-3.720001c0,-2.240002 -2.16,-2.84 -5.199997,-3.561001l-3.080002,-0.719997c-4.639999,-1.080002 -9.119999,-2.120003 -9.119999,-8.440002c0,-3.199999 1.719999,-8.839998 11.040001,-8.839998c8.799999,0 11.16,5.759998 11.199997,9.279999l-5.759998,0c-0.16,-1.279999 -0.639999,-4.32 -5.880001,-4.32c-2.279999,0 -5,0.84 -5,3.440001c0,2.239998 1.84,2.720001 3.040001,3l7,1.720001c3.919998,0.959999 7.52,2.559998 7.52,7.719997c0,8.639999 -8.799999,9.399002 -11.32,9.399002c-10.480001,0 -12.280001,-6.040001 -12.280001,-9.600002l5.76,0l0,0.002003z"/>
   </g>
  </g>
 </g>
</svg>